<svg width="16" height="12" viewBox="0 0 16 12" version="1.1" xmlns="http://www.w3.org/2000/svg" xmlns:xlink="http://www.w3.org/1999/xlink">
<title>eye-icon</title>
<desc>Created using Figma</desc>
<g id="Canvas" transform="translate(13243 -336)">
<g id="eye-icon">
<g id="Vector">
<use xlink:href="#path0_fill" transform="translate(-13242 337)" fill="#BDBDBD"/>
<use xlink:href="#path1_stroke" transform="translate(-13242 337)" fill="#BDBDBD"/>
</g>
<g id="Vector">
<use xlink:href="#path2_fill" transform="translate(-13236.9 340.125)" fill="#FFFFFF"/>
<use xlink:href="#path3_stroke" transform="translate(-13236.9 340.125)" fill="#FFFFFF"/>
</g>
</g>
</g>
<defs>
<path id="path0_fill" d="M 0 5C 0 5 2.54545 0 7 0C 11.4545 0 14 5 14 5C 14 5 11.4545 10 7 10C 2.54545 10 0 5 0 5Z"/>
<path id="path1_stroke" d="M 0 5L -0.445582 4.77316C -0.518139 4.91568 -0.518139 5.08432 -0.445582 5.22684L 0 5ZM 14 5L 14.4456 5.22684C 14.5181 5.08432 14.5181 4.91568 14.4456 4.77316L 14 5ZM 0 5C 0.445582 5.22684 0.445513 5.22698 0.445454 5.22709C 0.445447 5.22711 0.445397 5.2272 0.445383 5.22723C 0.445358 5.22728 0.445366 5.22726 0.445415 5.22717C 0.445618 5.22677 0.445762 5.22649 0.446166 5.22571C 0.447189 5.22373 0.448386 5.22142 0.450417 5.21754C 0.454915 5.20895 0.460934 5.19755 0.46985 5.18101C 0.488589 5.14622 0.514972 5.09818 0.551954 5.03365C 0.627882 4.90103 0.736736 4.71888 0.885099 4.49347C 1.18633 4.03509 1.61635 3.44594 2.19122 2.84524C 3.34116 1.64054 4.96897 0.5 7 0.5L 7 -0.5C 4.57649 -0.5 2.70429 0.859457 1.46787 2.15476C 0.849554 2.80406 0.364808 3.46491 0.0495598 3.94403C -0.110316 4.18737 -0.235126 4.39584 -0.315803 4.53666C -0.357124 4.60885 -0.389779 4.66823 -0.410501 4.70669C -0.421317 4.72677 -0.430134 4.74345 -0.435541 4.75377C -0.438463 4.75936 -0.440984 4.76422 -0.442443 4.76704C -0.443278 4.76866 -0.444066 4.7702 -0.444483 4.77101C -0.444744 4.77152 -0.44502 4.77206 -0.44515 4.77231C -0.445242 4.77249 -0.44535 4.7727 -0.445395 4.77279C -0.445493 4.77299 -0.445582 4.77316 0 5ZM 7 0.5C 9.03103 0.5 10.6588 1.64054 11.8088 2.84524C 12.3836 3.44594 12.8137 4.03509 13.1149 4.49347C 13.2633 4.71888 13.3721 4.90103 13.448 5.03365C 13.485 5.09818 13.5114 5.14622 13.5302 5.18101C 13.5391 5.19755 13.5451 5.20895 13.5496 5.21754C 13.5516 5.22142 13.5528 5.22373 13.5538 5.22571C 13.5542 5.22649 13.5544 5.22677 13.5546 5.22717C 13.5546 5.22726 13.5546 5.22728 13.5546 5.22723C 13.5546 5.2272 13.5546 5.22711 13.5545 5.22709C 13.5545 5.22698 13.5544 5.22684 14 5C 14.4456 4.77316 14.4455 4.77299 14.4454 4.77279C 14.4453 4.7727 14.4452 4.77249 14.4452 4.77231C 14.445 4.77206 14.4447 4.77152 14.4445 4.77101C 14.4441 4.7702 14.4433 4.76866 14.4424 4.76704C 14.441 4.76422 14.4385 4.75936 14.4355 4.75377C 14.4301 4.74345 14.4213 4.72677 14.4105 4.70669C 14.3898 4.66823 14.3571 4.60885 14.3158 4.53666C 14.2351 4.39584 14.1103 4.18737 13.9504 3.94403C 13.6352 3.46491 13.1504 2.80406 12.5321 2.15476C 11.2957 0.859457 9.42351 -0.5 7 -0.5L 7 0.5ZM 14 5C 13.5544 4.77316 13.5545 4.77302 13.5545 4.77291C 13.5546 4.77289 13.5546 4.7728 13.5546 4.77277C 13.5546 4.77272 13.5546 4.77274 13.5546 4.77283C 13.5544 4.77323 13.5542 4.77351 13.5538 4.77429C 13.5528 4.77627 13.5516 4.77858 13.5496 4.78246C 13.5451 4.79105 13.5391 4.80245 13.5302 4.81899C 13.5114 4.85378 13.485 4.90182 13.448 4.96635C 13.3721 5.09897 13.2633 5.28112 13.1149 5.50653C 12.8137 5.96491 12.3836 6.55406 11.8088 7.15476C 10.6588 8.35946 9.03103 9.5 7 9.5L 7 10.5C 9.42351 10.5 11.2957 9.14054 12.5321 7.84524C 13.1504 7.19594 13.6352 6.53509 13.9504 6.05597C 14.1103 5.81263 14.2351 5.60416 14.3158 5.46334C 14.3571 5.39115 14.3898 5.33177 14.4105 5.29331C 14.4213 5.27323 14.4301 5.25655 14.4355 5.24623C 14.4385 5.24064 14.441 5.23578 14.4424 5.23296C 14.4433 5.23134 14.4441 5.2298 14.4445 5.22899C 14.4447 5.22848 14.445 5.22794 14.4452 5.22769C 14.4452 5.22751 14.4453 5.2273 14.4454 5.22721C 14.4455 5.22701 14.4456 5.22684 14 5ZM 7 9.5C 4.96897 9.5 3.34116 8.35946 2.19122 7.15476C 1.61635 6.55406 1.18633 5.96491 0.885099 5.50653C 0.736736 5.28112 0.627882 5.09897 0.551954 4.96635C 0.514972 4.90182 0.488589 4.85378 0.46985 4.81899C 0.460934 4.80245 0.454915 4.79105 0.450417 4.78246C 0.448386 4.77858 0.447189 4.77627 0.446166 4.77429C 0.445762 4.77351 0.445618 4.77323 0.445415 4.77283C 0.445366 4.77274 0.445358 4.77272 0.445383 4.77277C 0.445397 4.7728 0.445447 4.77289 0.445454 4.77291C 0.445513 4.77302 0.445582 4.77316 0 5C -0.445582 5.22684 -0.445493 5.22701 -0.445395 5.22721C -0.44535 5.2273 -0.445242 5.22751 -0.44515 5.22769C -0.44502 5.22794 -0.444744 5.22848 -0.444483 5.22899C -0.444066 5.2298 -0.443278 5.23134 -0.442443 5.23296C -0.440984 5.23578 -0.438463 5.24064 -0.435541 5.24623C -0.430134 5.25655 -0.421317 5.27323 -0.410501 5.29331C -0.389779 5.33177 -0.357124 5.39115 -0.315803 5.46334C -0.235126 5.60416 -0.110316 5.81263 0.0495598 6.05597C 0.364808 6.53509 0.849554 7.19594 1.46787 7.84524C 2.70429 9.14054 4.57649 10.5 7 10.5L 7 9.5Z"/>
<path id="path2_fill" d="M 1.90909 3.75C 2.96345 3.75 3.81818 2.91053 3.81818 1.875C 3.81818 0.839466 2.96345 0 1.90909 0C 0.854729 0 0 0.839466 0 1.875C 0 2.91053 0.854729 3.75 1.90909 3.75Z"/>
<path id="path3_stroke" d="M 3.31818 1.875C 3.31818 2.62594 2.69584 3.25 1.90909 3.25L 1.90909 4.25C 3.23106 4.25 4.31818 3.19513 4.31818 1.875L 3.31818 1.875ZM 1.90909 3.25C 1.12234 3.25 0.5 2.62594 0.5 1.875L -0.5 1.875C -0.5 3.19513 0.587118 4.25 1.90909 4.25L 1.90909 3.25ZM 0.5 1.875C 0.5 1.12406 1.12234 0.5 1.90909 0.5L 1.90909 -0.5C 0.587118 -0.5 -0.5 0.554869 -0.5 1.875L 0.5 1.875ZM 1.90909 0.5C 2.69584 0.5 3.31818 1.12406 3.31818 1.875L 4.31818 1.875C 4.31818 0.554869 3.23106 -0.5 1.90909 -0.5L 1.90909 0.5Z"/>
</defs>
</svg>
