<svg width="12" height="12" viewBox="0 0 12 12" version="1.1" xmlns="http://www.w3.org/2000/svg" xmlns:xlink="http://www.w3.org/1999/xlink">
<title>link-icon</title>
<desc>Created using Figma</desc>
<g id="Canvas" transform="translate(-6434 -298)">
<g id="link-icon">
<g id="Vector">
<use xlink:href="#path0_stroke" transform="translate(6435 300.667)" fill="#F2994A"/>
</g>
<g id="Vector">
<use xlink:href="#path1_stroke" transform="translate(6441.67 299)" fill="#F2994A"/>
</g>
<g id="Vector">
<use xlink:href="#path2_stroke" transform="translate(6438.89 299)" fill="#F2994A"/>
</g>
</g>
</g>
<defs>
<path id="path0_stroke" d="M 8.83333 3.88889C 8.83333 3.61275 8.60948 3.38889 8.33333 3.38889C 8.05719 3.38889 7.83333 3.61275 7.83333 3.88889L 8.83333 3.88889ZM 8.0079 8.0079L 7.65434 7.65434L 8.0079 8.0079ZM 0.325437 8.0079L 0.67899 7.65434L 0.325437 8.0079ZM 0 7.22222L -0.5 7.22222L 0 7.22222ZM 1.11111 0L 1.11111 -0.5L 1.11111 0ZM 4.44444 0.5C 4.72059 0.5 4.94444 0.276142 4.94444 0C 4.94444 -0.276142 4.72059 -0.5 4.44444 -0.5L 4.44444 0.5ZM 7.83333 3.88889L 7.83333 7.22222L 8.83333 7.22222L 8.83333 3.88889L 7.83333 3.88889ZM 7.83333 7.22222C 7.83333 7.3843 7.76895 7.53974 7.65434 7.65434L 8.36145 8.36145C 8.66359 8.05931 8.83333 7.64952 8.83333 7.22222L 7.83333 7.22222ZM 7.65434 7.65434C 7.53974 7.76895 7.3843 7.83333 7.22222 7.83333L 7.22222 8.83333C 7.64952 8.83333 8.05931 8.66359 8.36145 8.36145L 7.65434 7.65434ZM 7.22222 7.83333L 1.11111 7.83333L 1.11111 8.83333L 7.22222 8.83333L 7.22222 7.83333ZM 1.11111 7.83333C 0.949035 7.83333 0.793596 7.76895 0.67899 7.65434L -0.0281165 8.36145C 0.274025 8.66359 0.683818 8.83333 1.11111 8.83333L 1.11111 7.83333ZM 0.67899 7.65434C 0.564385 7.53974 0.5 7.3843 0.5 7.22222L -0.5 7.22222C -0.5 7.64952 -0.330258 8.05931 -0.0281165 8.36145L 0.67899 7.65434ZM 0.5 7.22222L 0.5 1.11111L -0.5 1.11111L -0.5 7.22222L 0.5 7.22222ZM 0.5 1.11111C 0.5 0.949034 0.564385 0.793596 0.67899 0.67899L -0.0281165 -0.0281165C -0.330259 0.274025 -0.5 0.683818 -0.5 1.11111L 0.5 1.11111ZM 0.67899 0.67899C 0.793596 0.564385 0.949034 0.5 1.11111 0.5L 1.11111 -0.5C 0.683818 -0.5 0.274025 -0.330259 -0.0281165 -0.0281165L 0.67899 0.67899ZM 1.11111 0.5L 4.44444 0.5L 4.44444 -0.5L 1.11111 -0.5L 1.11111 0.5Z"/>
<path id="path1_stroke" d="M 0 -0.5C -0.276142 -0.5 -0.5 -0.276142 -0.5 0C -0.5 0.276142 -0.276142 0.5 0 0.5L 0 -0.5ZM 3.33333 0L 3.83333 0C 3.83333 -0.276142 3.60948 -0.5 3.33333 -0.5L 3.33333 0ZM 2.83333 3.33333C 2.83333 3.60948 3.05719 3.83333 3.33333 3.83333C 3.60948 3.83333 3.83333 3.60948 3.83333 3.33333L 2.83333 3.33333ZM 0 0.5L 3.33333 0.5L 3.33333 -0.5L 0 -0.5L 0 0.5ZM 2.83333 0L 2.83333 3.33333L 3.83333 3.33333L 3.83333 0L 2.83333 0Z"/>
<path id="path2_stroke" d="M -0.353553 5.75756C -0.548816 5.95282 -0.548816 6.2694 -0.353553 6.46466C -0.158291 6.65993 0.158291 6.65993 0.353553 6.46466L -0.353553 5.75756ZM 6.46466 0.353553C 6.65993 0.158291 6.65993 -0.158291 6.46466 -0.353553C 6.2694 -0.548816 5.95282 -0.548816 5.75756 -0.353553L 6.46466 0.353553ZM 0.353553 6.46466L 6.46466 0.353553L 5.75756 -0.353553L -0.353553 5.75756L 0.353553 6.46466Z"/>
</defs>
</svg>
