<svg width="16" height="16" viewBox="0 0 16 16" version="1.1" xmlns="http://www.w3.org/2000/svg" xmlns:xlink="http://www.w3.org/1999/xlink">
<title>settings</title>
<desc>Created using Figma</desc>
<g id="Canvas" transform="translate(548 -911)">
<g id="settings">
<g id="Vector">
<use xlink:href="#path0_stroke" transform="translate(-541.909 917.091)" fill="#828282"/>
</g>
<g id="Vector">
<use xlink:href="#path1_stroke" transform="translate(-547 912)" fill="#828282"/>
</g>
</g>
</g>
<defs>
<path id="path0_stroke" d="M 3.31818 1.90909C 3.31818 2.68731 2.68731 3.31818 1.90909 3.31818L 1.90909 4.31818C 3.23959 4.31818 4.31818 3.23959 4.31818 1.90909L 3.31818 1.90909ZM 1.90909 3.31818C 1.13087 3.31818 0.5 2.68731 0.5 1.90909L -0.5 1.90909C -0.5 3.23959 0.578587 4.31818 1.90909 4.31818L 1.90909 3.31818ZM 0.5 1.90909C 0.5 1.13087 1.13087 0.5 1.90909 0.5L 1.90909 -0.5C 0.578587 -0.5 -0.5 0.578587 -0.5 1.90909L 0.5 1.90909ZM 1.90909 0.5C 2.68731 0.5 3.31818 1.13087 3.31818 1.90909L 4.31818 1.90909C 4.31818 0.578587 3.23959 -0.5 1.90909 -0.5L 1.90909 0.5Z"/>
<path id="path1_stroke" d="M 11.9191 10.0673L 11.5616 10.4169L 11.5655 10.4208L 11.9191 10.0673ZM 11.9573 10.1055L 11.6037 10.459L 11.6039 10.4592L 11.9573 10.1055ZM 11.9573 11.9064L 11.6039 11.5526L 11.6035 11.553L 11.9573 11.9064ZM 10.1564 11.9064L 10.5101 11.553L 10.5099 11.5528L 10.1564 11.9064ZM 10.1182 11.8682L 10.4718 11.5146L 10.4678 11.5107L 10.1182 11.8682ZM 8.96 11.6582L 9.15698 12.1178L 9.16188 12.1156L 8.96 11.6582ZM 8.32364 12.6191L 7.82364 12.6171L 7.82364 12.6191L 8.32364 12.6191ZM 5.77818 12.67L 6.27832 12.67L 6.27805 12.6583L 5.77818 12.67ZM 5.09091 11.7091L 4.88903 12.1665C 4.89866 12.1708 4.90843 12.1747 4.91832 12.1784L 5.09091 11.7091ZM 3.93273 11.9191L 3.58307 11.5616L 3.57917 11.5655L 3.93273 11.9191ZM 3.89455 11.9573L 3.54099 11.6037L 3.5408 11.6039L 3.89455 11.9573ZM 2.09364 11.9573L 2.44739 11.6039L 2.44699 11.6035L 2.09364 11.9573ZM 1.72036 11.0568L 2.22036 11.0568L 1.72036 11.0568ZM 2.09364 10.1564L 2.44699 10.5101L 2.44719 10.5099L 2.09364 10.1564ZM 2.13182 10.1182L 2.48539 10.4718L 2.48925 10.4678L 2.13182 10.1182ZM 2.34182 8.96L 1.88222 9.15698L 1.88439 9.16188L 2.34182 8.96ZM 1.38091 8.32364L 1.3829 7.82364L 1.38091 7.82364L 1.38091 8.32364ZM 0 7.05091L -0.5 7.05091L 0 7.05091ZM 1.27273 5.77818L 1.27273 6.27818L 1.27273 5.77818ZM 1.33 5.77818L 1.33 6.27832L 1.34169 6.27805L 1.33 5.77818ZM 2.29091 5.09091L 1.83348 4.88903C 1.82922 4.89866 1.82528 4.90843 1.82164 4.91832L 2.29091 5.09091ZM 2.08091 3.93273L 2.43836 3.58307L 2.43446 3.57917L 2.08091 3.93273ZM 2.04273 3.89455L 2.39628 3.54099L 2.39608 3.5408L 2.04273 3.89455ZM 2.04273 2.09364L 2.39608 2.44739L 2.39648 2.44699L 2.04273 2.09364ZM 3.84364 2.09364L 3.48989 2.44699L 3.49008 2.44719L 3.84364 2.09364ZM 3.88182 2.13182L 3.52824 2.48539L 3.53219 2.48925L 3.88182 2.13182ZM 5.04 2.34182L 5.04 1.84182C 4.97048 1.84182 4.90172 1.85632 4.83812 1.88439L 5.04 2.34182ZM 5.09091 2.34182L 5.09091 2.84182C 5.15862 2.84182 5.22563 2.82806 5.28787 2.80139L 5.09091 2.34182ZM 5.72727 1.38091L 6.22727 1.3829L 6.22727 1.38091L 5.72727 1.38091ZM 7 0L 7 -0.5L 7 0ZM 8.27273 1.33L 7.77272 1.33L 7.77273 1.33199L 8.27273 1.33ZM 8.90909 2.29091L 9.11098 1.83345L 9.10606 1.83134L 8.90909 2.29091ZM 10.0673 2.08091L 10.4169 2.43836L 10.4208 2.43446L 10.0673 2.08091ZM 10.1055 2.04273L 10.459 2.39628L 10.4592 2.39608L 10.1055 2.04273ZM 11.0059 1.66945L 11.0059 2.16945L 11.0059 1.66945ZM 11.9064 2.04273L 11.5526 2.39608L 11.553 2.39648L 11.9064 2.04273ZM 11.9064 3.84364L 11.553 3.48989L 11.5528 3.49008L 11.9064 3.84364ZM 11.8682 3.88182L 11.5146 3.52824L 11.5107 3.53219L 11.8682 3.88182ZM 11.6582 5.04L 12.1582 5.04C 12.1582 4.97048 12.1437 4.90172 12.1156 4.83812L 11.6582 5.04ZM 11.6582 5.09091L 11.1582 5.09091C 11.1582 5.15862 11.1719 5.22563 11.1986 5.28787L 11.6582 5.09091ZM 12.6191 5.72727L 12.6171 6.22727L 12.6191 6.22727L 12.6191 5.72727ZM 12.67 8.27273L 12.67 7.77272L 12.668 7.77273L 12.67 8.27273ZM 11.2517 8.70721C 11.1421 8.96917 11.0993 9.32925 11.1446 9.60958L 12.1285 9.43117C 12.0989 9.29863 12.1067 9.23289 12.1665 9.11097L 11.2517 8.70721ZM 11.1446 9.60958C 11.2006 9.88794 11.3671 10.2101 11.5617 10.4169L 12.2765 9.71764C 12.1777 9.6245 12.1473 9.56568 12.1285 9.43117L 11.1446 9.60958ZM 11.5655 10.4208L 11.6037 10.459L 12.3108 9.75189L 12.2726 9.71371L 11.5655 10.4208ZM 11.6039 10.4592C 11.6893 10.541 11.7286 10.5999 11.7716 10.71L 12.6954 10.3271C 12.6104 10.1282 12.462 9.90627 12.3106 9.7517L 11.6039 10.4592ZM 11.7716 10.71C 11.8191 10.8183 11.833 10.8877 11.8305 11.0059L 12.8305 11.0059C 12.8281 10.7896 12.776 10.5278 12.6954 10.3271L 11.7716 10.71ZM 11.8305 11.0059C 11.833 11.1241 11.8191 11.1935 11.7716 11.3018L 12.6954 11.6848C 12.776 11.484 12.8281 11.2222 12.8305 11.0059L 11.8305 11.0059ZM 11.7716 11.3018C 11.7286 11.4119 11.6893 11.4708 11.6039 11.5526L 12.3106 12.2601C 12.462 12.1055 12.6104 11.8836 12.6954 11.6848L 11.7716 11.3018ZM 11.6035 11.553C 11.5217 11.6383 11.4629 11.6777 11.3527 11.7207L 11.7357 12.6445C 11.9346 12.5595 12.1565 12.411 12.311 12.2597L 11.6035 11.553ZM 11.3527 11.7207C 11.2444 11.7682 11.175 11.782 11.0568 11.7796L 11.0568 12.7796C 11.2731 12.7772 11.5349 12.7251 11.7357 12.6445L 11.3527 11.7207ZM 11.0568 11.7796C 10.9386 11.782 10.8692 11.7682 10.7609 11.7207L 10.378 12.6445C 10.5787 12.7251 10.8405 12.7772 11.0568 12.7796L 11.0568 11.7796ZM 10.7609 11.7207C 10.6508 11.6777 10.5919 11.6383 10.5101 11.553L 9.80261 12.2597C 9.95718 12.411 10.1791 12.5595 10.378 12.6445L 10.7609 11.7207ZM 10.5099 11.5528L 10.4717 11.5146L 9.76463 12.2217L 9.80281 12.2599L 10.5099 11.5528ZM 10.4678 11.5107C 10.261 11.3162 9.93885 11.1497 9.66049 11.0937L 9.48208 12.0776C 9.61659 12.0964 9.6754 12.1268 9.76855 12.2256L 10.4678 11.5107ZM 9.66049 11.0937C 9.38016 11.0484 9.02008 11.0912 8.75812 11.2008L 9.16188 12.1156C 9.2838 12.0558 9.34954 12.048 9.48208 12.0776L 9.66049 11.0937ZM 8.76303 11.1986C 8.51038 11.3126 8.23873 11.5393 8.08132 11.7674L 8.91507 12.3196C 8.98379 12.2063 9.03319 12.1651 9.15697 12.1178L 8.76303 11.1986ZM 8.08132 11.7674C 7.93269 12.0014 7.83001 12.34 7.82364 12.6171L 8.82363 12.6211C 8.8189 12.4887 8.83757 12.4271 8.91507 12.3196L 8.08132 11.7674ZM 7.82364 12.6191L 7.82364 12.7273L 8.82364 12.7273L 8.82364 12.6191L 7.82364 12.6191ZM 7.82364 12.7273C 7.82364 12.9322 7.74222 13.1288 7.59731 13.2737L 8.30442 13.9808C 8.63687 13.6483 8.82364 13.1974 8.82364 12.7273L 7.82364 12.7273ZM 7.59731 13.2737C 7.45239 13.4186 7.25585 13.5 7.05091 13.5L 7.05091 14.5C 7.52107 14.5 7.97197 14.3132 8.30442 13.9808L 7.59731 13.2737ZM 7.05091 13.5C 6.84597 13.5 6.64942 13.4186 6.50451 13.2737L 5.7974 13.9808C 6.12985 14.3132 6.58075 14.5 7.05091 14.5L 7.05091 13.5ZM 6.50451 13.2737C 6.35959 13.1288 6.27818 12.9322 6.27818 12.7273L 5.27818 12.7273C 5.27818 13.1974 5.46495 13.6483 5.7974 13.9808L 6.50451 13.2737ZM 6.27818 12.7273L 6.27818 12.67L 5.27818 12.67L 5.27818 12.7273L 6.27818 12.7273ZM 6.27805 12.6583C 6.26581 12.3734 6.15052 12.028 5.98919 11.7928L 5.17582 12.3746C 5.25963 12.4822 5.2807 12.5453 5.27832 12.6817L 6.27805 12.6583ZM 5.98919 11.7928C 5.81881 11.5642 5.52915 11.3435 5.2635 11.2398L 4.91832 12.1784C 5.04815 12.2202 5.10107 12.2605 5.17582 12.3746L 5.98919 11.7928ZM 5.29279 11.2517C 5.03083 11.1421 4.67075 11.0993 4.39042 11.1446L 4.56883 12.1285C 4.70137 12.0989 4.76711 12.1067 4.88903 12.1665L 5.29279 11.2517ZM 4.39042 11.1446C 4.11206 11.2006 3.78991 11.3671 3.58309 11.5617L 4.28236 12.2765C 4.3755 12.1777 4.43432 12.1473 4.56883 12.1285L 4.39042 11.1446ZM 3.57917 11.5655L 3.54099 11.6037L 4.2481 12.3108L 4.28628 12.2726L 3.57917 11.5655ZM 3.5408 11.6039C 3.45896 11.6893 3.40013 11.7286 3.29 11.7716L 3.67294 12.6954C 3.87183 12.6104 4.09373 12.462 4.2483 12.3106L 3.5408 11.6039ZM 3.29 11.7716C 3.18172 11.8191 3.1123 11.833 2.99409 11.8305L 2.99409 12.8305C 3.21039 12.8281 3.47221 12.776 3.67294 12.6954L 3.29 11.7716ZM 2.99409 11.8305C 2.87588 11.833 2.80646 11.8191 2.69818 11.7716L 2.31524 12.6954C 2.51598 12.776 2.77779 12.8281 2.99409 12.8305L 2.99409 11.8305ZM 2.69818 11.7716C 2.58806 11.7286 2.52922 11.6893 2.44739 11.6039L 1.73989 12.3106C 1.89445 12.462 2.11635 12.6104 2.31524 12.6954L 2.69818 11.7716ZM 2.44699 11.6035C 2.36165 11.5217 2.32231 11.4629 2.27926 11.3527L 1.35549 11.7357C 1.44055 11.9346 1.58895 12.1565 1.74028 12.311L 2.44699 11.6035ZM 2.27926 11.3527C 2.23177 11.2444 2.21795 11.175 2.22036 11.0568L 1.22036 11.0568C 1.22277 11.2731 1.27489 11.5349 1.35549 11.7357L 2.27926 11.3527ZM 2.22036 11.0568C 2.21795 10.9386 2.23177 10.8692 2.27926 10.7609L 1.35549 10.378C 1.27489 10.5787 1.22277 10.8405 1.22036 11.0568L 2.22036 11.0568ZM 2.27926 10.7609C 2.32231 10.6508 2.36165 10.5919 2.44699 10.5101L 1.74028 9.80261C 1.58895 9.95718 1.44055 10.1791 1.35549 10.378L 2.27926 10.7609ZM 2.44719 10.5099L 2.48537 10.4717L 1.77827 9.76463L 1.74008 9.80281L 2.44719 10.5099ZM 2.48925 10.4678C 2.68382 10.261 2.85026 9.93885 2.90634 9.66049L 1.92239 9.48208C 1.90361 9.61658 1.87322 9.6754 1.77439 9.76855L 2.48925 10.4678ZM 2.90634 9.66049C 2.95156 9.38016 2.90883 9.02008 2.79925 8.75812L 1.88439 9.16188C 1.94423 9.2838 1.95203 9.34954 1.92239 9.48208L 2.90634 9.66049ZM 2.80139 8.76303C 2.68738 8.51038 2.46071 8.23873 2.23255 8.08132L 1.6804 8.91507C 1.79371 8.98379 1.83493 9.03319 1.88225 9.15697L 2.80139 8.76303ZM 2.23255 8.08132C 1.99858 7.93269 1.66002 7.83001 1.3829 7.82364L 1.37891 8.82363C 1.51135 8.8189 1.57291 8.83757 1.6804 8.91507L 2.23255 8.08132ZM 1.38091 7.82364L 1.27273 7.82364L 1.27273 8.82364L 1.38091 8.82364L 1.38091 7.82364ZM 1.27273 7.82364C 1.06779 7.82364 0.871241 7.74222 0.726327 7.59731L 0.0192198 8.30442C 0.35167 8.63687 0.802571 8.82364 1.27273 8.82364L 1.27273 7.82364ZM 0.726327 7.59731C 0.581412 7.45239 0.5 7.25585 0.5 7.05091L -0.5 7.05091C -0.5 7.52107 -0.313231 7.97197 0.0192198 8.30442L 0.726327 7.59731ZM 0.5 7.05091C 0.5 6.84597 0.581412 6.64942 0.726327 6.50451L 0.0192198 5.7974C -0.313231 6.12985 -0.5 6.58075 -0.5 7.05091L 0.5 7.05091ZM 0.726327 6.50451C 0.871241 6.35959 1.06779 6.27818 1.27273 6.27818L 1.27273 5.27818C 0.802571 5.27818 0.35167 5.46495 0.0192198 5.7974L 0.726327 6.50451ZM 1.27273 6.27818L 1.33 6.27818L 1.33 5.27818L 1.27273 5.27818L 1.27273 6.27818ZM 1.34169 6.27805C 1.62658 6.26581 1.97203 6.15052 2.20715 5.98919L 1.62541 5.17582C 1.5178 5.25963 1.45468 5.2807 1.31831 5.27832L 1.34169 6.27805ZM 2.20715 5.98919C 2.43581 5.81881 2.65654 5.52915 2.76018 5.2635L 1.82164 4.91832C 1.77982 5.04815 1.73949 5.10107 1.62541 5.17582L 2.20715 5.98919ZM 2.74834 5.29279C 2.85792 5.03083 2.90065 4.67075 2.85544 4.39042L 1.87148 4.56883C 1.90112 4.70137 1.89332 4.76711 1.83348 4.88903L 2.74834 5.29279ZM 2.85544 4.39042C 2.79935 4.11206 2.63291 3.78991 2.43834 3.58309L 1.72348 4.28236C 1.82231 4.3755 1.8527 4.43432 1.87148 4.56883L 2.85544 4.39042ZM 2.43446 3.57917L 2.39628 3.54099L 1.68917 4.2481L 1.72736 4.28628L 2.43446 3.57917ZM 2.39608 3.5408C 2.31074 3.45896 2.2714 3.40012 2.22836 3.29L 1.30458 3.67294C 1.38964 3.87183 1.53804 4.09373 1.68937 4.2483L 2.39608 3.5408ZM 2.22836 3.29C 2.18086 3.18172 2.16704 3.1123 2.16945 2.99409L 1.16945 2.99409C 1.17186 3.21039 1.22398 3.4722 1.30458 3.67294L 2.22836 3.29ZM 2.16945 2.99409C 2.16704 2.87588 2.18086 2.80646 2.22836 2.69818L 1.30458 2.31524C 1.22398 2.51598 1.17186 2.77779 1.16945 2.99409L 2.16945 2.99409ZM 2.22836 2.69818C 2.2714 2.58806 2.31074 2.52922 2.39608 2.44739L 1.68937 1.73989C 1.53804 1.89445 1.38964 2.11635 1.30458 2.31524L 2.22836 2.69818ZM 2.39648 2.44699C 2.47831 2.36165 2.53715 2.32231 2.64727 2.27926L 2.26433 1.35549C 2.06544 1.44055 1.84354 1.58895 1.68898 1.74028L 2.39648 2.44699ZM 2.64727 2.27926C 2.75555 2.23177 2.82497 2.21795 2.94318 2.22036L 2.94318 1.22036C 2.72688 1.22277 2.46507 1.27489 2.26433 1.35549L 2.64727 2.27926ZM 2.94318 2.22036C 3.06139 2.21795 3.13081 2.23177 3.23909 2.27926L 3.62203 1.35549C 3.4213 1.27489 3.15948 1.22277 2.94318 1.22036L 2.94318 2.22036ZM 3.23909 2.27926C 3.34922 2.32231 3.40805 2.36165 3.48989 2.44699L 4.19739 1.74028C 4.04282 1.58895 3.82092 1.44055 3.62203 1.35549L 3.23909 2.27926ZM 3.49008 2.44719L 3.52826 2.48537L 4.23537 1.77826L 4.19719 1.74008L 3.49008 2.44719ZM 3.53219 2.48925C 3.739 2.68382 4.06115 2.85026 4.33951 2.90634L 4.51792 1.92239C 4.38341 1.90361 4.3246 1.87322 4.23145 1.77439L 3.53219 2.48925ZM 4.33951 2.90634C 4.61984 2.95156 4.97992 2.90883 5.24188 2.79925L 4.83812 1.88439C 4.7162 1.94423 4.65046 1.95203 4.51792 1.92239L 4.33951 2.90634ZM 5.04 2.84182L 5.09091 2.84182L 5.09091 1.84182L 5.04 1.84182L 5.04 2.84182ZM 5.28787 2.80139C 5.54053 2.68738 5.81218 2.46071 5.96959 2.23255L 5.13584 1.6804C 5.06712 1.79371 5.01772 1.83493 4.89394 1.88225L 5.28787 2.80139ZM 5.96959 2.23255C 6.11822 1.99858 6.2209 1.66002 6.22727 1.3829L 5.22728 1.37891C 5.23201 1.51135 5.21334 1.57291 5.13584 1.6804L 5.96959 2.23255ZM 6.22727 1.38091L 6.22727 1.27273L 5.22727 1.27273L 5.22727 1.38091L 6.22727 1.38091ZM 6.22727 1.27273C 6.22727 1.06779 6.30868 0.871241 6.4536 0.726327L 5.74649 0.0192198C 5.41404 0.35167 5.22727 0.802571 5.22727 1.27273L 6.22727 1.27273ZM 6.4536 0.726327C 6.59851 0.581412 6.79506 0.5 7 0.5L 7 -0.5C 6.52984 -0.5 6.07894 -0.313231 5.74649 0.0192198L 6.4536 0.726327ZM 7 0.5C 7.20494 0.5 7.40149 0.581412 7.5464 0.726327L 8.25351 0.0192198C 7.92106 -0.313231 7.47016 -0.5 7 -0.5L 7 0.5ZM 7.5464 0.726327C 7.69132 0.871241 7.77273 1.06779 7.77273 1.27273L 8.77273 1.27273C 8.77273 0.802571 8.58596 0.35167 8.25351 0.0192198L 7.5464 0.726327ZM 7.77273 1.27273L 7.77273 1.33L 8.77273 1.33L 8.77273 1.27273L 7.77273 1.27273ZM 7.77273 1.33199C 7.7791 1.60911 7.88178 1.94767 8.03041 2.18164L 8.86416 1.62949C 8.78666 1.522 8.76799 1.46044 8.77272 1.32801L 7.77273 1.33199ZM 8.03041 2.18164C 8.18783 2.4098 8.45947 2.63647 8.71212 2.75048L 9.10606 1.83134C 8.98228 1.78402 8.93288 1.7428 8.86416 1.62949L 8.03041 2.18164ZM 8.70721 2.74834C 8.96917 2.85792 9.32925 2.90065 9.60958 2.85544L 9.43117 1.87148C 9.29863 1.90112 9.23289 1.89332 9.11097 1.83348L 8.70721 2.74834ZM 9.60958 2.85544C 9.88794 2.79935 10.2101 2.63291 10.4169 2.43834L 9.71764 1.72348C 9.6245 1.82231 9.56568 1.8527 9.43117 1.87148L 9.60958 2.85544ZM 10.4208 2.43446L 10.459 2.39628L 9.7519 1.68918L 9.71372 1.72736L 10.4208 2.43446ZM 10.4592 2.39608C 10.541 2.31074 10.5999 2.2714 10.71 2.22836L 10.3271 1.30458C 10.1282 1.38964 9.90627 1.53804 9.7517 1.68937L 10.4592 2.39608ZM 10.71 2.22836C 10.8183 2.18086 10.8877 2.16704 11.0059 2.16945L 11.0059 1.16945C 10.7896 1.17186 10.5278 1.22398 10.3271 1.30458L 10.71 2.22836ZM 11.0059 2.16945C 11.1241 2.16704 11.1935 2.18086 11.3018 2.22836L 11.6848 1.30458C 11.484 1.22398 11.2222 1.17186 11.0059 1.16945L 11.0059 2.16945ZM 11.3018 2.22836C 11.4119 2.2714 11.4708 2.31074 11.5526 2.39608L 12.2601 1.68937C 12.1055 1.53804 11.8836 1.38964 11.6848 1.30458L 11.3018 2.22836ZM 11.553 2.39648C 11.6383 2.47831 11.6777 2.53715 11.7207 2.64727L 12.6445 2.26433C 12.5595 2.06544 12.411 1.84354 12.2597 1.68898L 11.553 2.39648ZM 11.7207 2.64727C 11.7682 2.75555 11.782 2.82497 11.7796 2.94318L 12.7796 2.94318C 12.7772 2.72688 12.7251 2.46507 12.6445 2.26433L 11.7207 2.64727ZM 11.7796 2.94318C 11.782 3.06139 11.7682 3.13081 11.7207 3.23909L 12.6445 3.62203C 12.7251 3.4213 12.7772 3.15948 12.7796 2.94318L 11.7796 2.94318ZM 11.7207 3.23909C 11.6777 3.34921 11.6383 3.40805 11.553 3.48989L 12.2597 4.19739C 12.411 4.04282 12.5595 3.82092 12.6445 3.62203L 11.7207 3.23909ZM 11.5528 3.49008L 11.5146 3.52827L 12.2217 4.23537L 12.2599 4.19719L 11.5528 3.49008ZM 11.5107 3.53219C 11.3162 3.739 11.1497 4.06115 11.0937 4.33951L 12.0776 4.51792C 12.0964 4.38341 12.1268 4.32459 12.2256 4.23145L 11.5107 3.53219ZM 11.0937 4.33951C 11.0484 4.61984 11.0912 4.97992 11.2008 5.24188L 12.1156 4.83812C 12.0558 4.7162 12.048 4.65046 12.0776 4.51792L 11.0937 4.33951ZM 11.1582 5.04L 11.1582 5.09091L 12.1582 5.09091L 12.1582 5.04L 11.1582 5.04ZM 11.1986 5.28787C 11.3126 5.54053 11.5393 5.81218 11.7674 5.96959L 12.3196 5.13584C 12.2063 5.06712 12.1651 5.01772 12.1178 4.89394L 11.1986 5.28787ZM 11.7674 5.96959C 12.0014 6.11822 12.34 6.2209 12.6171 6.22727L 12.6211 5.22728C 12.4887 5.23201 12.4271 5.21334 12.3196 5.13584L 11.7674 5.96959ZM 12.6191 6.22727L 12.7273 6.22727L 12.7273 5.22727L 12.6191 5.22727L 12.6191 6.22727ZM 12.7273 6.22727C 12.9322 6.22727 13.1288 6.30868 13.2737 6.4536L 13.9808 5.74649C 13.6483 5.41404 13.1974 5.22727 12.7273 5.22727L 12.7273 6.22727ZM 13.2737 6.4536C 13.4186 6.59851 13.5 6.79506 13.5 7L 14.5 7C 14.5 6.52984 14.3132 6.07894 13.9808 5.74649L 13.2737 6.4536ZM 13.5 7C 13.5 7.20494 13.4186 7.40149 13.2737 7.5464L 13.9808 8.25351C 14.3132 7.92106 14.5 7.47016 14.5 7L 13.5 7ZM 13.2737 7.5464C 13.1288 7.69132 12.9322 7.77273 12.7273 7.77273L 12.7273 8.77273C 13.1974 8.77273 13.6483 8.58596 13.9808 8.25351L 13.2737 7.5464ZM 12.7273 7.77273L 12.67 7.77273L 12.67 8.77273L 12.7273 8.77273L 12.7273 7.77273ZM 12.668 7.77273C 12.3909 7.7791 12.0523 7.88178 11.8184 8.03041L 12.3705 8.86416C 12.478 8.78666 12.5396 8.76799 12.672 8.77272L 12.668 7.77273ZM 11.8184 8.03041C 11.5902 8.18782 11.3635 8.45947 11.2495 8.71212L 12.1687 9.10606C 12.216 8.98228 12.2572 8.93288 12.3705 8.86416L 11.8184 8.03041Z"/>
</defs>
</svg>
