<svg width="68" height="20" viewBox="0 0 68 20" version="1.1" xmlns="http://www.w3.org/2000/svg" xmlns:xlink="http://www.w3.org/1999/xlink">
<title>ud-logo</title>
<desc>Created using Figma</desc>
<g id="Canvas" transform="translate(-5872 973)">
<g id="ud-logo">
<use xlink:href="#path0_fill" transform="translate(5872 -973)" fill="#F2994A"/>
<use xlink:href="#path1_fill" transform="translate(5872 -973)" fill="#F2994A"/>
<use xlink:href="#path2_fill" transform="translate(5872 -973)" fill="#F2994A"/>
<use xlink:href="#path3_fill" transform="translate(5872 -973)" fill="#F2994A"/>
<use xlink:href="#path4_fill" transform="translate(5872 -973)" fill="#F2994A"/>
<use xlink:href="#path5_fill" transform="translate(5872 -973)" fill="#F2994A"/>
<use xlink:href="#path6_fill" transform="translate(5872 -973)" fill="#F2994A"/>
<use xlink:href="#path7_fill" transform="translate(5872 -973)" fill="#F2994A"/>
<use xlink:href="#path8_fill" transform="translate(5872 -973)" fill="#F2994A"/>
<use xlink:href="#path9_fill" transform="translate(5872 -973)" fill="#F2994A"/>
<use xlink:href="#path10_fill" transform="translate(5872 -973)" fill="#F2994A"/>
<use xlink:href="#path11_fill" transform="translate(5872 -973)" fill="#F2994A"/>
<use xlink:href="#path12_fill" transform="translate(5872 -973)" fill="#F2994A"/>
<use xlink:href="#path13_fill" transform="translate(5872 -973)" fill="#F2994A"/>
</g>
</g>
<defs>
<path id="path0_fill" d="M 39.2422 6.935C 39.2148 6.94495 39.1855 6.94843 39.1567 6.94525L 36.6245 6.94525C 36.5957 6.94519 36.5669 6.93872 36.5405 6.92627C 36.5146 6.91388 36.4917 6.89575 36.4736 6.87341C 36.4556 6.85107 36.4434 6.82501 36.4375 6.7973C 36.4312 6.76959 36.4316 6.74084 36.439 6.71332L 36.439 0.339355C 36.439 0.0565796 36.439 0 36.7349 0L 39.1855 0C 39.3599 0 39.3599 0.0282593 39.3599 0.361938L 39.3599 6.73029C 39.3652 6.75824 39.3643 6.78705 39.3564 6.81445C 39.3481 6.84186 39.334 6.86707 39.314 6.888C 39.2944 6.90894 39.2695 6.92505 39.2422 6.935Z"/>
<path id="path1_fill" d="M 23.3555 14.3486C 23.3247 14.3542 23.293 14.3519 23.2637 14.342C 23.2344 14.3321 23.208 14.3148 23.187 14.292C 20.394 12.2559 16.0273 8.34216 16.0273 8.34216L 16.0273 13.8565C 16.0273 13.9377 16.0273 13.9788 16.0068 13.9995C 15.9858 14.0205 15.9438 14.0205 15.8589 14.0205L 13.0654 14.0205C 13.0161 14.0205 12.9692 14.0015 12.9341 13.9675C 12.8994 13.9336 12.8799 13.8875 12.8799 13.8395C 12.7866 9.24146 12.8042 6.37964 12.8799 1.61749C 12.8735 1.591 12.876 1.56335 12.8867 1.53815C 12.897 1.51294 12.9146 1.49133 12.938 1.47614C 12.959 1.45862 12.9858 1.44897 13.0132 1.44897C 13.041 1.44897 13.0679 1.45862 13.0889 1.47614C 15.731 3.33118 20.2661 7.42596 20.2661 7.42596L 20.2661 2.0191C 20.2661 1.82111 20.2661 1.80414 20.4116 1.80414L 23.228 1.80414C 23.4136 1.80414 23.4136 1.83807 23.4136 2.0191C 23.4893 5.53131 23.4717 10.3669 23.4136 14.1166C 23.4248 14.157 23.4253 14.1993 23.415 14.2398C 23.4048 14.2803 23.3843 14.3177 23.3555 14.3486Z"/>
<path id="path2_fill" d="M 5.22607 14.3316C 1.68994 14.3316 0 12.386 0 9.41113L 0 1.91168C 0 1.85529 0 1.82849 0.0131836 1.81573C 0.0253906 1.8042 0.0488281 1.8042 0.0927734 1.8042L 3.19971 1.8042C 3.26172 1.8042 3.29346 1.8042 3.31006 1.82019C 3.32764 1.83722 3.32764 1.87256 3.32764 1.94562L 3.32764 9.96539C 3.33203 10.204 3.38721 10.4392 3.48926 10.6562C 3.59131 10.8732 3.73779 11.0673 3.92041 11.2266C 4.10303 11.3857 4.31738 11.5066 4.55029 11.5815C 4.78271 11.6565 5.02881 11.684 5.27295 11.6621C 5.5166 11.684 5.7627 11.6565 5.99561 11.5815C 6.22803 11.5066 6.44238 11.3857 6.625 11.2266C 6.80762 11.0673 6.95459 10.8732 7.05664 10.6562C 7.15869 10.4392 7.21338 10.204 7.21826 9.96539L 7.21826 1.92865C 7.21826 1.82117 7.21826 1.8042 7.32861 1.8042L 10.3657 1.8042C 10.4077 1.8042 10.4307 1.8042 10.4434 1.81561C 10.4585 1.82953 10.4585 1.86035 10.4585 1.92865L 10.4585 9.61475C 10.4526 12.4879 8.91943 14.3316 5.22607 14.3316Z"/>
<path id="path3_fill" d="M 26.1719 14.0206L 29.2437 14.0206C 29.4062 14.0206 29.4297 14.0036 29.4297 13.8566L 29.4297 1.97955C 29.4297 1.81555 29.4121 1.81555 29.2437 1.81555L 26.1719 1.81555L 26.1323 1.81531C 26.0732 1.81476 26.0415 1.81445 26.0239 1.8302C 26.0034 1.84888 26.0034 1.88995 26.0034 1.97955L 26.0034 13.8566C 26.0034 13.9378 26.0034 13.9788 26.0239 13.9995C 26.0449 14.0206 26.0869 14.0206 26.1719 14.0206Z"/>
<path id="path4_fill" d="M 51.5078 14.3316C 47.9717 14.3316 46.2817 12.386 46.2817 9.41113L 46.2817 1.91168C 46.2817 1.85529 46.2817 1.82849 46.2949 1.81573C 46.3071 1.8042 46.3306 1.8042 46.3745 1.8042L 49.4814 1.8042C 49.5435 1.8042 49.5752 1.8042 49.5918 1.82019C 49.6094 1.83722 49.6094 1.87256 49.6094 1.94562L 49.6094 9.96539C 49.6548 10.4362 49.8794 10.8735 50.2388 11.1918C 50.5977 11.51 51.0659 11.6863 51.5518 11.6863C 52.0371 11.6863 52.5054 11.51 52.8647 11.1918C 53.2236 10.8735 53.4482 10.4362 53.4941 9.96539L 53.4941 1.92865C 53.4941 1.82117 53.4941 1.8042 53.6045 1.8042L 56.6416 1.8042C 56.6836 1.8042 56.7065 1.8042 56.7192 1.81561C 56.7344 1.82953 56.7344 1.86035 56.7344 1.92865L 56.7344 9.61475C 56.7285 12.4879 55.1665 14.3316 51.5078 14.3316Z"/>
<path id="path5_fill" d="M 59.3354 14.0206L 67.7964 14.0206C 67.9766 14.0206 67.9995 13.9867 67.9995 13.7774L 67.9995 11.4529C 67.9995 11.3279 67.9995 11.2687 67.9697 11.2406C 67.9434 11.2153 67.8926 11.2153 67.7964 11.2153L 62.3726 11.2719L 62.3726 9.17932L 67.5522 9.17932C 67.7383 9.17932 67.7383 9.13971 67.7383 8.9248L 67.7383 6.72473C 67.7383 6.50415 67.7207 6.47021 67.5522 6.47021L 62.3726 6.47021L 62.3726 4.43414L 67.6685 4.49072C 67.814 4.49072 67.8721 4.40021 67.8721 4.23621L 67.8721 2.03046C 67.8721 1.79858 67.8545 1.79858 67.6685 1.79858L 59.3008 1.79858C 59.1323 1.79858 59.1323 1.81555 59.1323 1.97955L 59.1323 13.7661C 59.1323 13.9867 59.1499 14.0206 59.3354 14.0206Z"/>
<path id="path6_fill" d="M 40.353 5.74622L 40.353 1.97949C 41.5845 2.44598 42.6411 3.26691 43.3818 4.33282C 43.4775 4.47028 43.5674 4.61102 43.6509 4.75458L 43.6748 4.7395C 44.2451 5.71863 44.5435 6.82605 44.54 7.95197C 44.5327 9.29877 44.0903 10.6093 43.2764 11.6979C 42.4854 12.7553 41.3828 13.5511 40.1162 13.9805C 39.4199 14.22 38.6807 14.3457 37.9282 14.3457C 36.1855 14.3457 34.5146 13.6715 33.2822 12.4714C 32.0498 11.2712 31.3579 9.64349 31.3579 7.94629C 31.3442 6.67322 31.7246 5.42566 32.4497 4.36639C 33.1748 3.30707 34.2109 2.48511 35.4229 2.00775L 35.4229 5.83105C 35.0142 6.46289 34.812 7.20026 34.8418 7.94629C 34.8418 8.76038 35.063 9.49329 35.4746 10.0602C 35.6807 10.3436 35.9341 10.5856 36.2314 10.7755C 36.6987 11.0739 37.2744 11.2436 37.9429 11.2436C 38.9839 11.2436 39.8008 10.8306 40.335 10.1622C 40.6743 9.73779 40.8994 9.21045 40.9961 8.62054C 41.0317 8.40356 41.0498 8.17816 41.0498 7.94629C 41.0522 7.52423 40.9868 7.10199 40.8555 6.7005C 40.7383 6.36206 40.5693 6.04022 40.353 5.74622Z"/>
<path id="path7_fill" d="M 54.9976 19.5406C 54.8682 19.6921 54.7041 19.8123 54.5186 19.8917C 54.3335 19.9712 54.1313 20.0078 53.9292 19.9987C 53.6802 19.9997 53.4336 19.95 53.2051 19.8527C 52.9766 19.7554 52.772 19.6128 52.6035 19.4338C 52.4351 19.2549 52.3066 19.0437 52.2271 18.8137C 52.1475 18.5837 52.1182 18.3401 52.1406 18.0984C 52.1206 17.8497 52.1538 17.5995 52.2388 17.3642C 52.3237 17.1288 52.458 16.9133 52.6338 16.7316C 52.8096 16.55 53.022 16.4061 53.2583 16.3094C 53.4941 16.2126 53.7485 16.165 54.0049 16.1698C 54.4199 16.1358 54.833 16.2591 55.1577 16.514C 55.4819 16.7689 55.6929 17.1359 55.7471 17.5385L 54.5854 17.5385C 54.5605 17.4134 54.4932 17.3001 54.3945 17.217C 54.2954 17.1339 54.1704 17.0857 54.0396 17.0803C 53.2695 17.0803 53.272 17.844 53.2729 18.1183L 53.2729 18.1436C 53.2573 18.2613 53.2676 18.3808 53.3032 18.4943C 53.3384 18.6078 53.3984 18.7127 53.4785 18.802C 53.5586 18.8914 53.6572 18.963 53.7681 19.0123C 53.8789 19.0617 53.999 19.0875 54.1211 19.0881C 54.2505 19.0931 54.3779 19.0558 54.4834 18.982C 54.5884 18.9082 54.6655 18.8022 54.7017 18.6809L 54.2314 18.6809L 54.2314 17.9005L 55.7471 17.9005L 55.7471 19.9139L 55.0327 19.9139L 54.9976 19.5406Z"/>
<path id="path8_fill" fill-rule="evenodd" d="M 46.4092 16.2603L 48.3081 16.2603C 49.5566 16.2603 49.998 17.1595 49.998 18.0814C 50.0264 18.3318 49.9961 18.5852 49.9097 18.8225C 49.8228 19.0599 49.6816 19.2749 49.4971 19.4514C 49.3125 19.6279 49.0894 19.7612 48.8442 19.8413C 48.5986 19.9214 48.3379 19.9462 48.0815 19.9139L 46.4092 19.9139L 46.4092 16.2603ZM 47.5708 18.975L 48.0234 18.975C 48.1426 18.979 48.2612 18.9572 48.3706 18.9113C 48.48 18.8654 48.5776 18.7964 48.6567 18.7094C 48.7354 18.6223 48.7935 18.5193 48.8267 18.4078C 48.8599 18.2963 48.8672 18.179 48.8481 18.0645C 48.8579 17.9461 48.8413 17.8271 48.7988 17.7158C 48.7563 17.6046 48.689 17.5038 48.6021 17.4207C 48.5151 17.3375 48.4102 17.2741 48.2954 17.2348C 48.1802 17.1956 48.0576 17.1814 47.9365 17.1934L 47.5649 17.1934L 47.5649 18.975L 47.5708 18.975Z"/>
<path id="path9_fill" d="M 50.5205 16.2603L 51.6821 16.2603L 51.6821 19.9139L 50.5205 19.9139L 50.5205 16.2603Z"/>
<path id="path10_fill" d="M 56.3271 16.2603L 57.4888 16.2603L 57.4888 19.9139L 56.3271 19.9139L 56.3271 16.2603Z"/>
<path id="path11_fill" d="M 57.9126 17.1934L 58.958 17.1934L 58.958 19.9082L 60.1191 19.9082L 60.1191 17.1934L 61.1704 17.1934L 61.1704 16.2603L 57.9126 16.2603L 57.9126 17.1934Z"/>
<path id="path12_fill" fill-rule="evenodd" d="M 62.251 16.2603L 63.3833 16.2603L 64.7476 19.9139L 63.5518 19.9139L 63.3945 19.3936L 62.2041 19.3936L 62.0361 19.9139L 60.8745 19.9139L 62.251 16.2603ZM 63.1626 18.6074L 62.8257 17.4763L 62.4658 18.6074L 63.1626 18.6074Z"/>
<path id="path13_fill" d="M 66.165 16.2603L 65.0093 16.2603L 65.0093 19.9139L 67.8257 19.9139L 67.8257 18.975L 66.165 18.975L 66.165 16.2603Z"/>
</defs>
</svg>
